<svg width="17" height="17" viewBox="0 0 17 17" fill="none" xmlns="http://www.w3.org/2000/svg">
<path d="M16.8346 6.83524H16.1499V6.79996H8.49995V10.1999H13.3037C12.6029 12.1792 10.7197 13.5999 8.49995 13.5999C5.68349 13.5999 3.39998 11.3164 3.39998 8.49995C3.39998 5.68349 5.68349 3.39998 8.49995 3.39998C9.80002 3.39998 10.9828 3.89043 11.8834 4.69155L14.2876 2.28734C12.7695 0.87252 10.7388 0 8.49995 0C3.80585 0 0 3.80585 0 8.49995C0 13.194 3.80585 16.9999 8.49995 16.9999C13.194 16.9999 16.9999 13.194 16.9999 8.49995C16.9999 7.93003 16.9412 7.37371 16.8346 6.83524Z" fill="#FFC107"/>
<path d="M0.979492 4.54365L3.77215 6.59171C4.5278 4.72087 6.35784 3.39998 8.4994 3.39998C9.79947 3.39998 10.9822 3.89043 11.8828 4.69155L14.287 2.28734C12.7689 0.87252 10.7383 0 8.4994 0C5.23457 0 2.40323 1.84321 0.979492 4.54365Z" fill="#FF3D00"/>
<path d="M8.50068 16.9994C10.6962 16.9994 12.6912 16.1592 14.1995 14.7928L11.5687 12.5667C10.6867 13.2375 9.60884 13.6003 8.50068 13.5994C6.28984 13.5994 4.41262 12.1897 3.70543 10.2224L0.933594 12.358C2.34034 15.1107 5.19717 16.9994 8.50068 16.9994Z" fill="#4CAF50"/>
<path d="M16.8346 6.83465H16.15V6.79938H8.5V10.1994H13.3037C12.9685 11.1413 12.3647 11.9644 11.5668 12.567L11.5681 12.5662L14.1988 14.7923C14.0126 14.9615 17 12.7493 17 8.49937C17 7.92945 16.9413 7.37312 16.8346 6.83465Z" fill="#1976D2"/>
</svg>
