<svg width="19" height="21" viewBox="0 0 19 21" fill="none" xmlns="http://www.w3.org/2000/svg">
<path d="M14.5024 6.40096C14.5024 4.96853 13.9334 3.59478 12.9205 2.5819C11.9076 1.56903 10.5339 1 9.10143 1C7.66901 1 6.29526 1.56903 5.28238 2.5819C4.26951 3.59478 3.70048 4.96853 3.70048 6.40096C3.70048 12.7021 1 14.5024 1 14.5024H17.2029C17.2029 14.5024 14.5024 12.7021 14.5024 6.40096Z" stroke="#0249AD" stroke-width="2" stroke-linecap="round" stroke-linejoin="round"/>
<path d="M10.659 18.5024C10.5007 18.7753 10.2736 19.0017 10.0003 19.1591C9.72697 19.3166 9.41711 19.3994 9.10171 19.3994C8.78631 19.3994 8.47645 19.3166 8.20315 19.1591C7.92984 19.0017 7.70269 18.7753 7.54443 18.5024" stroke="#0249AD" stroke-width="2" stroke-linecap="round" stroke-linejoin="round"/>
</svg>
