<svg width="19" height="17" viewBox="0 0 19 17" fill="none" xmlns="http://www.w3.org/2000/svg">
<path d="M7.93224 2.01875L1.21263 13.3489C1.07409 13.5913 1.00078 13.866 1.00001 14.1458C0.99923 14.4257 1.07101 14.7008 1.20821 14.9439C1.34541 15.187 1.54324 15.3896 1.78202 15.5315C2.0208 15.6734 2.29221 15.7497 2.56925 15.7528H16.0085C16.2855 15.7497 16.5569 15.6734 16.7957 15.5315C17.0345 15.3896 17.2323 15.187 17.3695 14.9439C17.5067 14.7008 17.5785 14.4257 17.5777 14.1458C17.5769 13.866 17.5036 13.5913 17.3651 13.3489L10.6455 2.01875C10.504 1.78326 10.3049 1.58855 10.0673 1.45343C9.82965 1.3183 9.56155 1.24731 9.28885 1.24731C9.01615 1.24731 8.74806 1.3183 8.51043 1.45343C8.2728 1.58855 8.07367 1.78326 7.93224 2.01875V2.01875Z" stroke="#0249AD" stroke-width="2" stroke-linecap="round" stroke-linejoin="round"/>
<path d="M9.28857 6.42798V9.5363" stroke="#0249AD" stroke-width="2" stroke-linecap="round" stroke-linejoin="round"/>
<circle cx="9.28904" cy="12.6445" r="1.03611" fill="#0249AD"/>
</svg>
