<svg width="38" height="34" viewBox="0 0 38 34" fill="none" xmlns="http://www.w3.org/2000/svg">
<path d="M28.2343 5.66574H9.63184L12.8424 0.849861C13.2201 0.283287 13.7867 0 14.4477 0H23.5129C24.1739 0 24.7405 0.283287 25.1182 0.849861L28.2343 5.66574Z" fill="#003073"/>
<path d="M9.44308 4.62703H3.77734V2.92731C3.77734 2.2663 4.24949 1.79416 4.91049 1.79416H8.30993C8.97094 1.79416 9.44308 2.2663 9.44308 2.92731V4.62703Z" fill="#003073"/>
<path d="M33.9944 33.9H3.77716C1.69972 33.9 0 32.2003 0 30.1229V7.4599C0 5.38247 1.69972 3.68275 3.77716 3.68275H33.9944C36.0719 3.68275 37.7716 5.38247 37.7716 7.4599V30.1229C37.7716 32.2003 36.0719 33.9 33.9944 33.9Z" fill="#0249AD"/>
<path d="M18.8862 30.1228C25.1444 30.1228 30.2176 25.0496 30.2176 18.7914C30.2176 12.5332 25.1444 7.45989 18.8862 7.45989C12.628 7.45989 7.55469 12.5332 7.55469 18.7914C7.55469 25.0496 12.628 30.1228 18.8862 30.1228Z" fill="#003073"/>
<path d="M18.8853 27.29C23.579 27.29 27.3839 23.485 27.3839 18.7914C27.3839 14.0977 23.579 10.2928 18.8853 10.2928C14.1917 10.2928 10.3867 14.0977 10.3867 18.7914C10.3867 23.485 14.1917 27.29 18.8853 27.29Z" fill="#FED45C"/>
<path d="M23.6061 15.9585C22.4729 14.6365 20.7732 13.8811 19.0735 13.8811C17.3738 13.8811 15.674 14.6365 14.5409 15.9585C14.0687 16.4306 14.1632 17.1861 14.6353 17.6582C15.1075 18.1304 15.8629 18.0359 16.335 17.5638C17.7515 15.9585 20.3955 15.9585 21.8119 17.5638C22.0952 17.8471 22.3785 17.9415 22.7562 17.9415C23.0395 17.9415 23.3228 17.8471 23.6061 17.6582C23.9838 17.2805 24.0782 16.4306 23.6061 15.9585Z" fill="#F5F5F5"/>
<path d="M6.60977 8.40417C7.6528 8.40417 8.49835 7.77001 8.49835 6.98774C8.49835 6.20546 7.6528 5.5713 6.60977 5.5713C5.56674 5.5713 4.72119 6.20546 4.72119 6.98774C4.72119 7.77001 5.56674 8.40417 6.60977 8.40417Z" fill="#003073"/>
</svg>
