<svg width="43" height="38" viewBox="0 0 43 38" fill="none" xmlns="http://www.w3.org/2000/svg">
<path d="M23.0713 38C23.0713 38 18.8491 38 18.8491 33.7778V4.22222C18.8491 4.22222 18.8491 0 23.0713 0H37.8491C37.8491 0 42.0713 0 42.0713 4.22222V33.7778C42.0713 33.7778 42.0713 38 37.8491 38H23.0713Z" fill="#0249AD"/>
<path d="M20.96 5.42857H39.96V32.873H20.96V5.42857Z" fill="#FED45C"/>
<path d="M13.7222 16.8283C13.7222 16.8283 14.7778 17.8838 14.7778 18.9394C14.7778 19.9949 13.7222 21.0505 13.7222 21.0505L8.44444 26.3283C7.38889 27.3838 5.27778 27.3838 5.27778 25.2727V22.106H2.11111C2.11111 22.106 0 22.106 0 19.9949V17.8838C0 15.7727 2.11111 15.7727 2.11111 15.7727H5.27778V12.606C5.27778 10.4949 7.38889 10.4949 8.44444 11.5505L13.7222 16.8283Z" fill="#14B0BF"/>
</svg>
