<svg width="42" height="31" viewBox="0 0 42 31" fill="none" xmlns="http://www.w3.org/2000/svg">
<path d="M37.2 31H4.13333C1.86 31 0 29.14 0 26.8667V4.13333C0 1.86 1.86 0 4.13333 0H37.2C39.4733 0 41.3333 1.86 41.3333 4.13333V26.8667C41.3333 29.14 39.4733 31 37.2 31Z" fill="#0249AD"/>
<path d="M25.8336 27.9C32.6819 27.9 38.2336 22.3484 38.2336 15.5C38.2336 8.65169 32.6819 3.10002 25.8336 3.10002C18.9853 3.10002 13.4336 8.65169 13.4336 15.5C13.4336 22.3484 18.9853 27.9 25.8336 27.9Z" fill="#002861"/>
<path d="M25.8347 24.8C30.9709 24.8 35.1347 20.6363 35.1347 15.5C35.1347 10.3638 30.9709 6.20001 25.8347 6.20001C20.6984 6.20001 16.5347 10.3638 16.5347 15.5C16.5347 20.6363 20.6984 24.8 25.8347 24.8Z" fill="#FED45C"/>
<path d="M30.7929 12.4C29.5529 10.9533 27.6929 10.1267 25.8329 10.1267C23.9729 10.1267 22.1129 10.9533 20.8729 12.4C20.3562 12.9167 20.4596 13.7433 20.9762 14.26C21.4929 14.7767 22.3196 14.6733 22.8362 14.1567C24.3862 12.4 27.2796 12.4 28.8295 14.1567C29.1395 14.4667 29.4496 14.57 29.8629 14.57C30.1729 14.57 30.4829 14.4667 30.7929 14.26C31.2062 13.8467 31.3095 12.9167 30.7929 12.4Z" fill="#F5F5F5"/>
<path d="M4.13379 4.13332H10.3338V7.23332H4.13379V4.13332Z" fill="#ADD8FB"/>
</svg>
