<svg width="15" height="14" viewBox="0 0 15 14" fill="none" xmlns="http://www.w3.org/2000/svg">
<path d="M13 6.66668C13.0023 7.54659 12.7967 8.4146 12.4 9.20001C11.9296 10.1412 11.2065 10.9328 10.3116 11.4862C9.41675 12.0396 8.38548 12.3329 7.33332 12.3333C6.45341 12.3356 5.5854 12.13 4.79999 11.7333L1 13L2.26666 9.20001C1.86995 8.4146 1.66437 7.54659 1.66667 6.66668C1.66707 5.61452 1.96041 4.58325 2.51381 3.68838C3.06721 2.79352 3.85883 2.0704 4.79999 1.60002C5.5854 1.20331 6.45341 0.997725 7.33332 1.00002H7.66666C9.05622 1.07668 10.3687 1.66319 11.3527 2.64726C12.3368 3.63132 12.9233 4.94378 13 6.33334V6.66668Z" stroke="#555556" stroke-linecap="round" stroke-linejoin="round"/>
<path fill-rule="evenodd" clip-rule="evenodd" d="M11.5 7.5C9.84315 7.5 8.5 8.84315 8.5 10.5C8.5 12.1569 9.84315 13.5 11.5 13.5C13.1569 13.5 14.5 12.1569 14.5 10.5C14.5 8.84315 13.1569 7.5 11.5 7.5Z" fill="#555556"/>
<path d="M11.5005 9.5V11.5" stroke="white" stroke-linecap="round" stroke-linejoin="round"/>
<path d="M10.4995 10.5H12.4995" stroke="white" stroke-linecap="round" stroke-linejoin="round"/>
</svg>
