<svg width="46" height="17" viewBox="0 0 46 17" fill="none" xmlns="http://www.w3.org/2000/svg">
<path d="M45.3345 3.77854L39.4172 17.0001H37.5869L39.7855 12.3733L35.8897 3.77712H37.815L40.6341 10.366H40.6709L43.4008 3.77712L45.3345 3.77854ZM20.75 7.86698V13.2233H18.89V0.00175175H23.8114C24.9796 -0.0302721 26.1173 0.377762 26.9989 1.14499C27.8701 1.86039 28.3489 2.87188 28.3348 3.94145C28.3408 4.47971 28.2235 5.0122 27.9919 5.49815C27.7604 5.98409 27.4207 6.4106 26.9989 6.745C26.1432 7.49724 25.0807 7.86698 23.8114 7.86698H20.75ZM20.7429 1.63231V6.24351H23.8567C24.5346 6.26782 25.1948 6.02401 25.6941 5.56493C26.1744 5.1371 26.4393 4.55344 26.4393 3.94853C26.4393 3.33654 26.173 2.75288 25.6941 2.33214C25.4496 2.09938 25.1612 1.91753 24.8458 1.79715C24.5304 1.67676 24.1942 1.62026 23.8567 1.6309L20.7429 1.63231ZM32.0605 3.77854C33.2406 3.77854 34.1784 4.11003 34.8641 4.76736C35.5497 5.42468 35.8897 6.32425 35.8897 7.46749V12.9343H34.3555V11.7019H34.2889C33.6245 12.7133 32.7462 13.2219 31.6469 13.2219C30.702 13.2219 29.92 12.9343 29.2853 12.3507C28.9791 12.0796 28.7354 11.7453 28.571 11.3708C28.4067 10.9964 28.3256 10.5907 28.3333 10.1818C28.3333 9.26663 28.6648 8.53706 29.3363 7.99023C30.0007 7.45191 30.8932 7.17849 32.0067 7.17849C32.9587 7.17849 33.7407 7.36266 34.3527 7.7239V7.33999C34.3547 7.06131 34.297 6.78542 34.1837 6.53083C34.0703 6.27623 33.9038 6.04882 33.6954 5.86384C33.2755 5.47083 32.7206 5.25425 32.1455 5.25893C31.2531 5.25893 30.5447 5.64993 30.0206 6.43192L28.611 5.51677C29.3859 4.35795 30.5362 3.7757 32.0563 3.7757L32.0605 3.77854ZM29.988 10.22C29.9848 10.43 30.0313 10.6377 30.1236 10.8263C30.2159 11.0148 30.3515 11.1789 30.5192 11.3052C30.8734 11.5928 31.3168 11.7486 31.7659 11.7401C32.4374 11.7401 33.0862 11.4596 33.5664 10.9652C34.075 10.4935 34.364 9.82904 34.364 9.13488C33.8625 8.72122 33.1684 8.51439 32.2759 8.51439C31.6185 8.51439 31.0802 8.67731 30.6453 9.00172C30.2104 9.33322 29.988 9.73271 29.988 10.2186V10.22ZM7.7126 0.00175175C9.61998 -0.0212529 11.4644 0.683403 12.8706 1.97231L10.672 4.12703C9.86881 3.38187 8.80801 2.97715 7.7126 2.99796C6.75669 3.00264 5.82598 3.30502 5.04985 3.86306C4.27372 4.42111 3.69073 5.20709 3.38191 6.11176C3.05743 7.04872 3.05743 8.06758 3.38191 9.00455C3.69073 9.90922 4.27372 10.6952 5.04985 11.2532C5.82598 11.8113 6.75669 12.1137 7.7126 12.1183C8.75242 12.1183 9.64633 11.8605 10.3391 11.4029C10.7376 11.1434 11.0792 10.8055 11.3429 10.4097C11.6067 10.0139 11.7871 9.56862 11.8733 9.10089H7.71119V6.19392H14.9786C15.0678 6.7025 15.1118 7.21249 15.1118 7.72815C15.1118 10.0302 14.2703 11.9781 12.8168 13.2913C11.5404 14.4431 9.79224 15.1131 7.71119 15.1131C6.29073 15.1204 4.89579 14.7357 3.67984 14.0014C2.46388 13.267 1.47404 12.2116 0.819191 10.951C0.280793 9.90058 0 8.73713 0 7.55674C0 6.37635 0.280793 5.2129 0.819191 4.16245C1.47325 2.9031 2.46174 1.84838 3.67608 1.11412C4.89042 0.379872 6.28363 -0.00549963 7.70269 0.000335877L7.7126 0.00175175Z" fill="black"/>
</svg>
