<svg width="42" height="18" viewBox="0 0 42 18" fill="none" xmlns="http://www.w3.org/2000/svg">
<path d="M7.67265 2.24859C7.17909 2.83666 6.39281 3.30265 5.60783 3.23439C5.50413 2.44155 5.89531 1.59226 6.34686 1.06588C6.83911 0.465994 7.70021 0.0354418 8.39855 0C8.48125 0.828288 8.15833 1.64214 7.67396 2.24859H7.67265ZM8.39067 3.3906C7.24997 3.32103 6.27073 4.04562 5.72991 4.04562C5.17728 4.04562 4.34899 3.42473 3.4472 3.44573C2.27762 3.46017 1.18417 4.12831 0.589539 5.20338C-0.648299 7.3417 0.267937 10.5078 1.45721 12.251C2.03871 13.1122 2.73442 14.056 3.65197 14.0297C4.51964 13.9943 4.86881 13.4561 5.915 13.4561C6.97431 13.4561 7.27491 14.0297 8.19902 14.0087C9.14808 13.9943 9.74928 13.1476 10.3308 12.2865C10.9937 11.3086 11.2667 10.3503 11.2811 10.3031C11.2667 10.2821 9.44211 9.57847 9.42899 7.45853C9.41455 5.67988 10.8637 4.83321 10.9254 4.78464C10.1116 3.55468 8.82648 3.42473 8.38936 3.39191L8.39067 3.3906ZM14.975 0.983182V13.9194H16.9636V9.49709H19.7137C22.2222 9.49709 23.9864 7.75388 23.9864 5.23751C23.9864 2.71589 22.2576 0.984494 19.7819 0.984494L14.975 0.983182ZM16.9636 2.67914H19.2542C20.9764 2.67914 21.9623 3.6085 21.9623 5.24276C21.9623 6.87702 20.9764 7.81426 19.2411 7.81426H16.9636V2.67914ZM27.608 14.0153C28.859 14.0153 30.0141 13.3799 30.5418 12.3666H30.5838V13.9194H32.4215V7.47822C32.4215 5.61949 30.9461 4.41054 28.6686 4.41054C26.5631 4.41054 25.0037 5.63393 24.9499 7.30889H26.7338C26.8847 6.50948 27.6093 5.98967 28.6148 5.98967C29.8316 5.98967 30.509 6.5633 30.509 7.61736V8.32751L28.0346 8.47847C25.723 8.62155 24.4786 9.57191 24.4786 11.2337C24.4786 12.9087 25.765 14.0166 27.6093 14.0166L27.608 14.0153ZM28.1488 12.4834C27.0882 12.4834 26.4122 11.9701 26.4122 11.1852C26.4122 10.3713 27.0619 9.8922 28.2985 9.81607L30.5077 9.67955V10.4107C30.5077 11.6223 29.489 12.4834 28.1409 12.4834H28.1488ZM34.8762 17.44C36.8097 17.44 37.7207 16.6878 38.5136 14.4248L42 4.53918H39.9838L37.6459 12.1749H37.6039L35.2661 4.53918H33.1881L36.5525 13.9536L36.3739 14.5272C36.0655 15.492 35.5745 15.8661 34.699 15.8661C34.5415 15.8661 34.2409 15.8464 34.1175 15.8333V17.3862C34.233 17.419 34.7266 17.4334 34.8696 17.4334L34.8762 17.44Z" fill="black"/>
</svg>
