<svg width="18" height="22" viewBox="0 0 18 22" fill="none" xmlns="http://www.w3.org/2000/svg">
<path d="M5.19691 12.4464C5.03351 13.3427 4.38458 17.5211 4.19317 18.7022C4.17917 18.7863 4.14649 18.8189 4.05312 18.8189H0.570379C0.215569 18.8189 -0.0412013 18.5108 0.00548414 18.17L2.74125 0.807669C2.81128 0.359489 3.21278 0.0186846 3.67496 0.0186846C10.7852 0.0186846 11.3827 -0.154052 13.1988 0.550899C16.0046 1.63867 16.2614 4.2624 15.253 7.10087C14.2492 10.0234 11.8683 11.2792 8.71233 11.3166C6.68618 11.3493 5.46769 10.9898 5.19691 12.4464ZM16.6675 5.72832C16.5835 5.66763 16.5508 5.64429 16.5275 5.78901C16.4341 6.32123 16.2894 6.83944 16.1166 7.35764C14.2539 12.6705 9.09048 12.2083 6.56946 12.2083C6.28468 12.2083 6.09794 12.3623 6.06059 12.6471C5.0055 19.2018 4.79542 20.5696 4.79542 20.5696C4.74873 20.9011 4.95882 21.1719 5.29028 21.1719H8.25481C8.65631 21.1719 8.98777 20.8778 9.06714 20.4763C9.09982 20.2242 9.01578 20.7611 9.73941 16.2139C9.95416 15.1868 10.407 15.2942 11.1073 15.2942C14.422 15.2942 17.0083 13.9496 17.7787 10.0514C18.0821 8.42674 17.9934 6.71805 16.6675 5.72832Z" fill="black"/>
</svg>
